<svg xmlns="http://www.w3.org/2000/svg" width="301.5" height="43" viewBox="0 0 301.5 43"><g transform="translate(-576.5 -463)"><path d="M11.359,9.707l-.765-5.4a1.168,1.168,0,0,0-.634-.88L3.344.125a1.168,1.168,0,0,0-1.35.218L.343,1.994a1.169,1.169,0,0,0-.218,1.35L3.43,9.95a1.168,1.168,0,0,0,.88.634l5.4.771,6.931,6.931L10.928,24A8.182,8.182,0,0,0,.8,35.23a1.169,1.169,0,0,0,1.881.323L6.527,31.7,8.18,33.357,4.331,37.206a1.169,1.169,0,0,0,.323,1.881,8.182,8.182,0,0,0,11.232-10.13L21.6,23.247l1.246,1.246a4.683,4.683,0,0,0,.722,5.678l8.343,8.341a4.674,4.674,0,1,0,6.606-6.606l-8.341-8.341a4.683,4.683,0,0,0-5.68-.722L23.246,21.6l5.709-5.709A8.182,8.182,0,0,0,39.085,4.656,1.169,1.169,0,0,0,37.2,4.334L33.357,8.18,31.7,6.527l3.849-3.849A1.168,1.168,0,0,0,35.23.8,8.182,8.182,0,0,0,24,10.928l-5.709,5.709ZM5.245,8.361,2.59,3.051l.461-.461L8.361,5.245,8.88,8.88ZM26.869,24.533a2.329,2.329,0,0,1,1.653.683l8.341,8.341a2.337,2.337,0,1,1-3.305,3.305l-8.341-8.341a2.336,2.336,0,0,1,1.653-3.988ZM13.681,27.855a1.168,1.168,0,0,0-.228,1.33,5.845,5.845,0,0,1-6.1,8.3l3.305-3.305a1.168,1.168,0,0,0,0-1.653L7.354,29.226a1.168,1.168,0,0,0-1.653,0L2.4,32.53a5.845,5.845,0,0,1,8.3-6.1,1.168,1.168,0,0,0,1.33-.228l6.262-6.259,1.651,1.653ZM26.2,12.026a1.169,1.169,0,0,0,.228-1.33,5.845,5.845,0,0,1,6.1-8.3L29.226,5.7a1.168,1.168,0,0,0,0,1.653l3.3,3.3a1.168,1.168,0,0,0,1.653,0l3.307-3.3a5.845,5.845,0,0,1-8.3,6.1,1.169,1.169,0,0,0-1.33.228l-6.262,6.259-1.653-1.653Z" transform="translate(576.5 465)" fill="#ee743f"/><text transform="translate(624 497)" fill="#807e7d" font-size="32" font-family="Roboto-Bold, Roboto" font-weight="700"><tspan x="0" y="0">TOOLS CONTROL</tspan></text></g></svg>