<svg xmlns="http://www.w3.org/2000/svg" xmlns:xlink="http://www.w3.org/1999/xlink" width="20" height="20" viewBox="0 0 20 20"><defs><clipPath id="a"><rect width="20" height="20" transform="translate(390 -186)" stroke-width="1"/></clipPath></defs><g transform="translate(-390 186)" clip-path="url(#a)"><g transform="translate(1048 -1349.749)"><path d="M58,13.568a1,1,0,1,0-1.48,1.345A4.972,4.972,0,0,1,58,18c0,2.36-3.436,6-8,6a8.59,8.59,0,0,1-2.7-.44,1,1,0,1,0-.627,1.9A10.61,10.61,0,0,0,50,26c5.54,0,10-4.376,10-8a6.839,6.839,0,0,0-2-4.432" transform="translate(-698 1156)" /><path d="M51.966,18.372a1.986,1.986,0,0,1-1.594,1.594,1,1,0,1,0,.355,1.968,3.993,3.993,0,0,0,3.207-3.207,1,1,0,1,0-1.968-.355" transform="translate(-698 1156)"/><path d="M52.557,16.357l3.2-3.2,3.451-3.451a1,1,0,1,0-1.414-1.414L54.86,11.226A10.6,10.6,0,0,0,50,10c-5.54,0-10,4.377-10,8a7.4,7.4,0,0,0,2.838,5.248l-2.545,2.545a1,1,0,1,0,1.414,1.414l3.339-3.339,3.311-3.31ZM48,18.084V18a2,2,0,0,1,2-2h.084Zm-3.748,3.748A5.663,5.663,0,0,1,42,18c0-2.36,3.435-6,8-6a8.553,8.553,0,0,1,3.378.708l-1.685,1.684A3.92,3.92,0,0,0,50,14a4,4,0,0,0-4,4,3.924,3.924,0,0,0,.392,1.694Z" transform="translate(-698 1156)" /></g></g></svg>