<svg xmlns="http://www.w3.org/2000/svg" xmlns:xlink="http://www.w3.org/1999/xlink" width="20" height="20" viewBox="0 0 20 20"><defs><clipPath id="a"><rect width="20" height="20" transform="translate(416 -190)" stroke-width="1"/></clipPath></defs><g transform="translate(-416 190)" clip-path="url(#a)"><g transform="translate(416 -188)"><path d="M10,16C4.46,16,0,11.624,0,8S4.46,0,10,0,20,4.376,20,8s-4.46,8-10,8M10,2C5.436,2,2,5.64,2,8s3.436,6,8,6,8-3.64,8-6-3.436-6-8-6" fill="#292d32"/><path d="M10,12a4,4,0,1,1,4-4,4,4,0,0,1-4,4m0-6a2,2,0,1,0,2,2,2,2,0,0,0-2-2" /></g></g></svg>