<svg xmlns="http://www.w3.org/2000/svg" width="20" height="20" viewBox="0 0 20 20"><g transform="translate(26.754 -39.24)"><path d="M1.1,14.484a9.7,9.7,0,0,1,0-8.967A10.225,10.225,0,0,1,10.217,0a9.887,9.887,0,0,1,6.829,2.608l-2.912,2.85a5.611,5.611,0,0,0-3.917-1.5A6.09,6.09,0,0,0,4.487,8.091h0A5.913,5.913,0,0,0,4.162,10a5.682,5.682,0,0,0,.323,1.908,6.085,6.085,0,0,0,5.728,4.133,6.256,6.256,0,0,0,3.464-.967l.008.006v-.006a4.642,4.642,0,0,0,2.043-2.983H10.221V8.333h9.616A11.282,11.282,0,0,1,20,10.225a9.676,9.676,0,0,1-3.03,7.35h-.008A9.849,9.849,0,0,1,10.213,20,10.22,10.22,0,0,1,1.1,14.484Z" transform="translate(-26.754 39.24)" fill="#ab4c44"/></g></svg>